HIERARCHY
ROOT Hips
{
	OFFSET -3.958830 18.904000 13.208200
	CHANNELS 6 Xposition Yposition Zposition Zrotation Yrotation Xrotation 
	JOINT LHipJoint
	{
		OFFSET 0.000000 0.000000 0.000000
		CHANNELS 3 Zrotation Yrotation Xrotation
		JOINT LeftUpLeg
		{
			OFFSET 1.800000 -1.400000 0.085000
			CHANNELS 3 Zrotation Yrotation Xrotation
			JOINT LeftLeg
			{
				OFFSET 2.215000 -6.000000 0.000000
				CHANNELS 3 Zrotation Yrotation Xrotation
				JOINT LeftFoot
				{
					OFFSET 2.500000 -6.900000 0.000000
					CHANNELS 3 Zrotation Yrotation Xrotation
					JOINT LeftToeBase
					{
						OFFSET 0.200000 -0.500000 1.950000
						CHANNELS 3 Zrotation Yrotation Xrotation
						End Site
						{
							OFFSET 0.000000 0.000000 0.000000
						}
					}
				}
			}
		}
	}
	JOINT RHipJoint
	{
		OFFSET 0.000000 0.000000 0.000000
		CHANNELS 3 Zrotation Yrotation Xrotation
		JOINT RightUpLeg
		{
			OFFSET -1.800000 -1.400000 0.085000
			CHANNELS 3 Zrotation Yrotation Xrotation
			JOINT RightLeg
			{
				OFFSET -2.215000 -6.000000 0.000000
				CHANNELS 3 Zrotation Yrotation Xrotation
				JOINT RightFoot
				{
					OFFSET -2.500000 -6.900000 0.000000
					CHANNELS 3 Zrotation Yrotation Xrotation
					JOINT RightToeBase
					{
						OFFSET -0.200000 -0.500000 1.950000
						CHANNELS 3 Zrotation Yrotation Xrotation
						End Site
						{
							OFFSET 0.000000 0.000000 0.000000
						}
					}
				}
			}
		}
	}
	JOINT LowerBack
	{
		OFFSET 0.000000 0.000000 0.000000
		CHANNELS 3 Zrotation Yrotation Xrotation
		JOINT Spine
		{
			OFFSET -0.087000 1.940000 -0.288900
			CHANNELS 3 Zrotation Yrotation Xrotation
			JOINT Spine1
			{
				OFFSET 0.000000 1.950000 0.060000
				CHANNELS 3 Zrotation Yrotation Xrotation
				JOINT Neck
				{
					OFFSET 0.000000 0.000000 0.000000
					CHANNELS 3 Zrotation Yrotation Xrotation
					JOINT Neck1
					{
						OFFSET 0.000000 1.600000 0.340000
						CHANNELS 3 Zrotation Yrotation Xrotation
						JOINT Head
						{
							OFFSET 0.000000 1.667000 -0.240000
							CHANNELS 3 Zrotation Yrotation Xrotation
							End Site
							{
								OFFSET 0.000000 0.000000 0.000000
							}
						}
					}
				}
				JOINT LeftShoulder
				{
					OFFSET 0.000000 0.000000 0.000000
					CHANNELS 3 Zrotation Yrotation Xrotation
					JOINT LeftArm
					{
						OFFSET 2.700000 1.550000 -0.730000
						CHANNELS 3 Zrotation Yrotation Xrotation
						JOINT LeftForeArm
						{
							OFFSET 5.450000 0.000000 0.000000
							CHANNELS 3 Zrotation Yrotation Xrotation
							JOINT LeftHand
							{
								OFFSET 3.450000 0.000000 0.000000
								CHANNELS 3 Zrotation Yrotation Xrotation
								JOINT LeftHandIndex1
								{
									OFFSET 0.750000 0.000000 0.000000
									CHANNELS 3 Zrotation Yrotation Xrotation
									End Site
									{
										OFFSET 0.000000 0.000000 0.000000
									}
								}
							}
						}
					}
				}
				JOINT RightShoulder
				{
					OFFSET 0.000000 0.000000 0.000000
					CHANNELS 3 Zrotation Yrotation Xrotation
					JOINT RightArm
					{
						OFFSET -2.700000 1.550000 -0.730000
						CHANNELS 3 Zrotation Yrotation Xrotation
						JOINT RightForeArm
						{
							OFFSET -5.450000 0.000000 0.000000
							CHANNELS 3 Zrotation Yrotation Xrotation
							JOINT RightHand
							{
								OFFSET -3.450000 0.000000 0.000000
								CHANNELS 3 Zrotation Yrotation Xrotation
								JOINT RightHandIndex1
								{
									OFFSET -0.750000 0.000000 0.000000
									CHANNELS 3 Zrotation Yrotation Xrotation
									End Site
									{
										OFFSET 0.000000 0.000000 0.000000
									}
								}
							}
						}
					}
				}
			}
		}
	}
}
MOTION
Frames: 4
Frame Time: 0.016667
6.543260 16.769040 -4.738060 5.947230 -54.395327 -0.091341 -15.266147 14.086986 3.001288 4.588762 0.360661 -1.609434 -9.542925 7.007527 11.028658 0.061748 4.717534 2.856955 0.241450 0.173960 0.402400 18.210896 -9.843084 3.120455 -5.540334 4.202780 -35.065005 -1.610601 -6.797782 44.086174 -0.584619 -5.570703 2.199378 0.065170 -0.194600 0.117030 -3.722490 -4.573250 -7.290706 13.409866 -9.228557 19.530974 -7.140474 -6.832042 7.847452 1.583588 -9.378102 -13.958125 -34.031748 26.422423 34.399392 -17.153270 23.037820 -11.172250 -7.105310 -6.882038 3.645105 -23.012465 -13.402686 1.043485 -61.642307 -49.148902 27.559099 -3.608744 3.452937 0.352800 -0.037010 0.238650 -0.065660 4.576310 8.990448 8.307345 40.256876 -6.036711 -11.152523 46.336037 50.804114 16.727038 2.236968 -1.776060 -0.036720 0.022610 -0.037990 -0.238590 
6.451040 16.767660 -4.738030 5.346118 -54.249901 0.100376 -15.253810 14.154421 2.923744 5.049618 0.293186 -1.757663 -8.618420 7.071510 12.467318 0.049639 4.740624 2.840617 0.240380 0.170210 0.402890 18.211353 -9.867150 3.145876 -5.070238 4.472062 -34.434077 -1.480644 -6.930583 44.895073 -0.619252 -5.714541 2.154676 0.062510 -0.199240 0.113110 -3.712642 -4.593588 -7.260970 13.270939 -9.236857 19.269552 -7.023344 -6.858004 7.835028 1.580578 -9.298675 -14.081534 -34.561607 26.757673 35.142656 -17.179110 23.001550 -10.816280 -7.290906 -7.296194 3.776201 -23.636718 -13.406966 1.091578 -60.984721 -46.608195 25.573471 -3.596862 3.436320 0.357280 -0.042480 0.239690 -0.068850 4.805312 9.376519 8.328018 40.765182 -5.274026 -11.091416 46.005500 50.602968 16.487311 2.252030 -1.758346 -0.037230 0.023360 -0.035690 -0.239880 
6.349580 16.776230 -4.739240 4.724808 -54.258040 0.362908 -15.231470 14.224563 2.833336 5.451099 0.134988 -2.371717 -7.597903 7.178734 14.610743 0.039689 4.784840 2.816607 0.236140 0.160140 0.398480 18.214754 -9.924912 3.168776 -4.545773 4.711492 -33.605599 -1.264556 -7.032143 45.294779 -0.640077 -5.797961 2.133656 0.056000 -0.195020 0.112420 -3.731426 -4.559356 -7.210127 13.331807 -9.217986 18.861814 -7.162513 -6.811164 7.830130 1.672774 -9.240027 -14.209475 -35.000765 26.988423 35.931528 -16.987560 22.836540 -10.021100 -7.591753 -7.662514 3.939974 -24.921582 -13.260973 1.039074 -59.618458 -44.123412 23.264843 -3.591555 3.417203 0.356460 -0.042570 0.235990 -0.067520 4.943129 9.756884 8.351761 41.439126 -4.450724 -10.956095 46.713489 50.242481 16.567686 2.271492 -1.749782 -0.037190 0.023180 -0.033370 -0.237100 
6.237520 16.793810 -4.742120 4.180370 -54.365466 0.543100 -15.200581 14.299479 2.747332 5.727763 -0.077876 -3.261785 -6.437039 7.288757 17.303058 0.033987 4.858056 2.776106 0.232140 0.152310 0.392340 18.219282 -10.020693 3.174021 -4.066893 4.861304 -32.424159 -0.851985 -7.133036 45.172766 -0.644728 -5.807277 2.138481 0.050330 -0.193850 0.109740 -3.760324 -4.475719 -7.147736 13.414754 -9.109145 18.379949 -7.465566 -6.678674 7.867842 1.848142 -9.151294 -14.289080 -35.140555 27.073069 37.149016 -16.655460 22.518870 -9.045750 -8.082834 -7.941862 4.075887 -26.578632 -12.950551 0.887521 -58.071956 -41.635249 20.932340 -3.587905 3.396493 0.353900 -0.043620 0.231680 -0.067390 5.078244 10.092943 8.358500 42.355908 -3.502624 -10.758071 48.447957 50.078798 17.120426 2.295768 -1.750488 -0.035450 0.020100 -0.031740 -0.233940 
